<svg width="568" height="584" viewBox="0 0 568 584" fill="none" xmlns="http://www.w3.org/2000/svg">
<g clip-path="url(#clip0_9_618)">
<path d="M309.39 554.14C452.216 554.14 568 540.18 568 522.96C568 505.74 452.216 491.78 309.39 491.78C166.563 491.78 50.7792 505.74 50.7792 522.96C50.7792 540.18 166.563 554.14 309.39 554.14Z" fill="#3F3D56"/>
<path d="M437.645 488.459L442.105 503.287C442.105 503.287 463.586 527.234 455.817 533.725C448.048 540.215 430.618 505.999 430.618 505.999L427.405 489.258L437.645 488.459Z" fill="#FFB8B8"/>
<path d="M396.436 373.685L402.937 371.347C402.937 371.347 413.05 374.465 414.495 385.378C415.94 396.291 426.776 451.635 426.776 451.635C426.776 451.635 431.11 453.974 428.22 457.871C425.331 461.769 442.668 496.846 442.668 496.846L428.943 503.862C428.943 503.862 401.492 472.682 401.492 469.564C401.492 466.446 402.215 463.328 402.215 460.21C402.215 457.092 401.492 457.092 402.215 454.753C402.697 452.716 402.94 450.62 402.937 448.517L397.881 436.045L396.436 373.685Z" fill="#F9A826"/>
<path d="M65.3156 427.156C101.388 427.156 130.631 362.771 130.631 283.347C130.631 203.923 101.388 139.538 65.3156 139.538C29.2428 139.538 0 203.923 0 283.347C0 362.771 29.2428 427.156 65.3156 427.156Z" fill="#F9A826"/>
<path d="M64.7159 284.838C67.974 222.239 74.5385 179.956 74.6045 179.536L73.1802 179.275C73.1143 179.696 66.5381 222.047 63.2747 284.727C60.2632 342.577 59.5366 430.078 73.1799 518.411L74.6049 518.155C60.9848 429.972 61.7097 342.603 64.7159 284.838Z" fill="#3F3D56"/>
<path d="M123.693 254.183L64.6371 288.29L65.3189 289.665L124.374 255.557L123.693 254.183Z" fill="#3F3D56"/>
<path d="M2.97541 271.277L2.29395 272.652L61.358 306.743L62.0394 305.368L2.97541 271.277Z" fill="#3F3D56"/>
<path d="M220.01 393.583C269.373 393.583 309.39 305.477 309.39 196.792C309.39 88.1066 269.373 0 220.01 0C170.648 0 130.631 88.1066 130.631 196.792C130.631 305.477 170.648 393.583 220.01 393.583Z" fill="#E6E6E6"/>
<path d="M218.925 198.808C223.384 113.132 232.369 55.2609 232.459 54.6862L231.035 54.4258C230.944 55.001 221.948 112.939 217.484 198.696C213.363 277.845 212.369 397.56 231.034 518.411L232.459 518.155C213.817 397.454 214.81 277.871 218.925 198.808Z" fill="#3F3D56"/>
<path d="M300.02 157.136L219.207 203.81L219.889 205.184L300.702 158.51L300.02 157.136Z" fill="#3F3D56"/>
<path d="M134.577 180.528L133.896 181.903L214.721 228.554L215.402 227.179L134.577 180.528Z" fill="#3F3D56"/>
<path d="M145.553 470.268C163.996 470.268 178.947 437.349 178.947 396.741C178.947 356.134 163.996 323.215 145.553 323.215C127.109 323.215 112.158 356.134 112.158 396.741C112.158 437.349 127.109 470.268 145.553 470.268Z" fill="#E6E6E6"/>
<path d="M145.523 399.909L145.721 400.308L175.914 382.869L175.233 381.494L145.586 398.617C147.227 366.033 150.582 344.159 150.65 343.728L149.225 343.468C149.152 343.938 145.165 369.914 143.75 407.5L113.848 390.23L113.167 391.605L143.36 409.044L143.721 408.317C142.589 439.339 143.223 478.128 149.225 516.987L150.65 516.731C144.106 474.363 143.962 432.075 145.523 399.909Z" fill="#3F3D56"/>
<path d="M405.275 299.69C393.664 278.336 370.691 277.34 370.691 277.34C370.691 277.34 348.305 274.225 333.945 306.748C320.561 337.063 302.088 366.332 330.971 373.429L336.189 355.755L339.42 374.744C343.532 375.066 347.658 375.143 351.778 374.974C382.71 373.887 412.168 375.292 411.219 363.211C409.958 347.151 416.448 320.238 405.275 299.69Z" fill="#2F2E41"/>
<path d="M324.339 470.74C324.015 472.972 323.544 475.177 322.931 477.337C322.24 479.451 321.174 481.406 320.542 483.542C318.529 490.35 321.32 497.941 325.777 503.196C329.631 507.727 334.622 510.953 340.143 512.481C344.164 513.582 348.345 513.74 352.489 513.893C363.964 514.316 375.734 514.695 386.607 510.682C390.044 509.381 393.362 507.741 396.519 505.78C397.518 505.262 398.397 504.509 399.091 503.576C399.92 502.291 400.026 500.625 400.019 499.054C399.995 493.76 399.008 488.492 399.242 483.204C399.372 480.275 399.876 477.348 399.628 474.427C399.294 471.123 398.023 468.009 395.989 465.513C393.954 463.017 391.255 461.259 388.259 460.481C385.175 459.76 381.976 460.153 378.836 460.481C370.685 461.334 362.499 461.732 354.31 461.675C345.943 461.617 337.628 460.227 329.303 460.081C326.841 460.039 326.891 460.865 326.107 463.458C325.385 465.846 324.795 468.277 324.339 470.74Z" fill="#2F2E41"/>
<path d="M291.622 466.437C289.373 465.822 287.055 465.553 284.736 465.64C282.298 465.806 279.92 466.524 277.757 467.748C275.594 468.973 273.694 470.675 272.182 472.744C270.684 474.845 269.608 477.259 269.022 479.832C268.437 482.406 268.354 485.083 268.779 487.693C269.34 490.52 270.258 493.251 271.508 495.809C273.334 499.843 275.525 503.868 278.905 506.453C280.941 507.873 283.134 509.01 285.434 509.835L303.241 517.136C305.86 518.211 308.48 519.285 311.126 520.281C324.409 525.279 338.268 528.278 352.311 529.192C356.586 529.469 360.927 529.546 365.098 528.487C366.117 528.341 367.051 527.793 367.717 526.947C368.056 526.303 368.256 525.583 368.302 524.844L369.398 516.494C369.643 515.332 369.611 514.121 369.305 512.975C368.803 511.572 367.544 510.689 366.345 509.939C354.638 502.621 340.969 498.583 331.115 488.539C328.796 486.175 326.854 482.427 324.036 480.82C320.84 478.999 317.076 477.959 313.772 476.281C306.55 472.612 299.45 468.395 291.622 466.437Z" fill="#2F2E41"/>
<path opacity="0.1" d="M309.4 477.693C315.694 479.839 342.267 494.711 346.822 499.903C346.211 500.143 325.497 487.508 324.875 487.305C319.225 485.459 313.544 483.601 308.179 480.9C307.099 480.357 301.166 477.803 301.435 476.321C301.738 474.648 308.283 477.312 309.4 477.693Z" fill="black"/>
<path d="M387.921 533.522C388.278 533.551 388.633 533.437 388.919 533.203C389.044 533.027 389.136 532.826 389.19 532.611C389.243 532.397 389.257 532.173 389.23 531.953L389.201 520.579C386.196 519.02 382.834 518.521 379.535 518.041L364.14 515.801C364.494 515.852 361.733 523.018 362.157 523.975C362.903 525.661 368.604 527.155 370.214 527.951C375.808 530.718 381.62 533.761 387.921 533.522Z" fill="#FFB8B8"/>
<path d="M339.62 520.539C336.713 521.043 333.469 521.489 331.587 523.951C329.2 527.074 330.216 531.73 331.355 535.599C331.523 536.38 331.863 537.107 332.345 537.718C333.122 538.553 334.313 538.675 335.402 538.75C338.053 538.933 340.874 539.076 343.19 537.661C344.24 536.906 345.25 536.089 346.216 535.213C347.922 533.977 349.799 533.043 351.778 532.445C355.411 531.201 359.152 530.362 362.943 529.941C364.437 529.867 365.916 529.583 367.342 529.097C368.056 528.845 368.708 528.418 369.245 527.851C369.782 527.283 370.191 526.589 370.439 525.824C370.976 523.757 369.872 521.649 368.813 519.836C367.495 517.578 366.098 515.2 364.132 513.538C361.263 511.113 359.844 512.974 356.955 514.526C351.49 517.463 345.646 519.49 339.62 520.539Z" fill="#FFB8B8"/>
<path d="M332.024 523.389L313.568 517.452C311.355 516.613 309.042 516.125 306.7 516.003C304.359 516.005 301.91 516.84 300.392 518.779C298.961 520.608 298.551 523.106 298.195 525.476L297.431 530.547C296.922 533.103 296.778 535.729 297.004 538.333C297.353 540.916 298.565 543.497 300.671 544.747C303.225 546.264 306.355 545.523 309.205 544.889C314.962 543.608 320.818 542.924 326.695 542.847C328.904 542.818 331.221 542.849 333.174 541.722C335.494 540.384 336.882 537.554 337.121 534.707C337.484 530.376 336.158 524.719 332.024 523.389Z" fill="#2F2E41"/>
<path d="M395.176 518.215C397.568 517.759 399.68 516.278 401.972 515.405C405.199 514.175 408.696 514.175 412.115 514.189C413.37 514.194 414.707 514.224 415.752 514.982C417.258 516.073 417.644 518.257 417.9 520.206L419.445 531.967C419.735 534.18 420.024 536.451 419.571 538.631C419.118 540.81 417.753 542.911 415.766 543.474C413.352 544.157 410.986 542.479 408.708 541.376C403.012 538.621 396.392 539.325 390.453 537.266C389.351 536.884 388.171 536.3 387.721 535.14C387.518 534.486 387.445 533.793 387.509 533.107C387.61 529.327 386.878 524.165 387.923 520.552C388.864 517.302 392.505 518.215 395.176 518.215Z" fill="#2F2E41"/>
<path d="M434.233 461.703C437.92 460.697 441.743 460.412 445.523 460.863C448.541 461.225 451.651 462.139 453.855 464.413C456.537 467.181 457.399 471.461 457.471 475.483C457.592 483.483 455.153 491.284 450.565 497.57C449.447 499.154 448.116 500.548 446.616 501.707C445.001 502.807 443.278 503.71 441.479 504.401L401.601 521.521C391.11 526.025 380.583 530.542 369.64 533.511C369.34 533.668 369.015 533.758 368.682 533.776C368.349 533.794 368.017 533.74 367.704 533.616C367.391 533.493 367.105 533.303 366.862 533.058C366.618 532.812 366.423 532.516 366.288 532.188C362.792 526.751 359.861 520.916 357.548 514.787C357.444 514.591 357.38 514.373 357.36 514.148C357.341 513.923 357.366 513.697 357.436 513.483C357.582 513.247 357.785 513.058 358.024 512.938L386.23 495.299C388.3 494.123 390.228 492.677 391.971 490.993C393.191 489.705 394.189 488.193 394.918 486.527C395.503 485.198 395.557 482.062 396.304 481.079C397.035 480.117 399.537 480.04 400.692 479.662C402.322 479.119 403.917 478.462 405.469 477.697C411.778 474.625 417.396 470.161 423.445 466.564C426.834 464.454 430.46 462.82 434.233 461.703Z" fill="#2F2E41"/>
<path opacity="0.1" d="M418.243 474.876C413.397 478.837 407.123 482.479 402.32 486.544C400.681 487.932 373.356 504.652 372.97 506.873C377.45 507.695 405.993 485.962 410.077 483.793C414.16 481.624 417.78 478.566 421.367 475.531C422.282 474.757 426.156 472.431 423.532 471.567C422.053 471.08 419.334 474.084 418.243 474.876Z" fill="black"/>
<path d="M369.708 353.418C384.868 353.418 397.158 340.156 397.158 323.797C397.158 307.438 384.868 294.176 369.708 294.176C354.548 294.176 342.258 307.438 342.258 323.797C342.258 340.156 354.548 353.418 369.708 353.418Z" fill="#FFB8B8"/>
<path d="M381.266 348.741C381.266 348.741 376.932 360.434 384.878 365.111C392.824 369.788 360.317 407.204 360.317 407.204L345.87 361.993C345.87 361.993 358.15 357.316 355.983 344.844L381.266 348.741Z" fill="#FFB8B8"/>
<path d="M357.787 440.48L375.282 419.64L398.963 432.685L395.351 524.666L389.572 531.682C389.572 531.682 365.011 555.067 327.448 535.579C327.448 535.579 314.445 523.887 315.167 505.958C315.89 488.03 313.722 485.691 313.722 485.691L313 422.552L348.664 415L357.787 440.48Z" fill="#F9A826"/>
<path d="M282.989 479.884L278.529 494.713C278.529 494.713 257.048 518.659 264.817 525.15C272.586 531.641 290.017 497.425 290.017 497.425L293.229 480.684L282.989 479.884Z" fill="#FFB8B8"/>
<path d="M324.198 365.111L317.697 362.772C317.697 362.772 307.584 365.89 306.139 376.803C304.694 387.716 293.859 443.061 293.859 443.061C293.859 443.061 289.524 445.399 292.414 449.297C295.303 453.194 277.966 488.272 277.966 488.272L291.691 495.287C291.691 495.287 319.142 464.107 319.142 460.989C319.142 457.871 318.419 454.753 318.419 451.635C318.419 448.517 319.142 448.517 318.419 446.179C317.937 444.141 317.694 442.046 317.697 439.943L322.754 427.471L324.198 365.111Z" fill="#F9A826"/>
<path d="M400.142 297.631L377.446 284.693L346.104 289.985L339.619 321.158L355.761 320.483L360.27 309.03V320.293L367.719 319.981L372.042 301.749L374.744 321.158L401.223 320.57L400.142 297.631Z" fill="#2F2E41"/>
<path d="M239.254 498.164V543.125H111.986C111.987 531.201 116.377 519.765 124.191 511.333C132.004 502.902 142.602 498.164 153.653 498.164C165.586 494.149 179.384 492.871 194.351 493.292C208.474 493.682 223.636 495.591 239.254 498.164Z" fill="#FF6584"/>
<path d="M221.074 533.317H280.921C281.925 533.317 282.889 533.748 283.599 534.514C284.309 535.281 284.708 536.321 284.708 537.405C284.708 538.489 284.309 539.528 283.599 540.295C282.889 541.061 281.925 541.492 280.921 541.492H221.074V533.317Z" fill="#3F3D56"/>
<path d="M231.439 459.686L247.48 438.703C247.85 437.871 248.446 437.18 249.188 436.722C249.931 436.264 250.785 436.061 251.637 436.14C252.489 436.219 253.299 436.576 253.958 437.163C254.618 437.751 255.096 438.541 255.329 439.429L261.655 463.53L231.439 459.686Z" fill="#3F3D56"/>
<path d="M211.983 470.373L218.043 443.969C218.043 443.046 218.304 442.145 218.79 441.386C219.276 440.627 219.965 440.045 220.765 439.719C221.565 439.393 222.438 439.337 223.268 439.559C224.098 439.781 224.846 440.271 225.412 440.963L240.77 459.745L211.983 470.373Z" fill="#FF6584"/>
<path d="M111.985 543.127H124.106V570.921C124.106 572.638 123.793 574.339 123.184 575.926C122.575 577.513 121.682 578.955 120.556 580.169C119.431 581.384 118.095 582.347 116.624 583.004C115.153 583.662 113.577 584 111.985 584V543.127Z" fill="#FF6584"/>
<path d="M218.801 534.952H278.648C279.653 534.952 280.616 535.383 281.326 536.149C282.037 536.916 282.436 537.955 282.436 539.039C282.436 540.124 282.037 541.163 281.326 541.93C280.616 542.696 279.653 543.127 278.648 543.127H218.801V534.952Z" fill="#FF6584"/>
<path opacity="0.2" d="M239.254 498.164V542.876C233.106 543.581 226.889 542.773 221.071 540.513C215.254 538.253 209.987 534.6 205.665 529.828C201.344 525.056 198.081 519.29 196.121 512.962C194.162 506.634 193.556 499.909 194.351 493.292C208.474 493.682 223.636 495.591 239.254 498.164Z" fill="black"/>
<path d="M239.255 543.127C261.848 543.127 280.163 523.363 280.163 498.984C280.163 474.604 261.848 454.841 239.255 454.841C216.662 454.841 198.347 474.604 198.347 498.984C198.347 523.363 216.662 543.127 239.255 543.127Z" fill="#FF6584"/>
<path d="M278.648 513.698C281.158 513.698 283.193 508.574 283.193 502.254C283.193 495.933 281.158 490.809 278.648 490.809C276.138 490.809 274.103 495.933 274.103 502.254C274.103 508.574 276.138 513.698 278.648 513.698Z" fill="#3F3D56"/>
<path d="M267.663 493.261C268.291 493.261 268.8 491.98 268.8 490.4C268.8 488.82 268.291 487.539 267.663 487.539C267.036 487.539 266.527 488.82 266.527 490.4C266.527 491.98 267.036 493.261 267.663 493.261Z" fill="#3F3D56"/>
<path d="M275.996 487.539C276.624 487.539 277.133 486.258 277.133 484.678C277.133 483.098 276.624 481.817 275.996 481.817C275.369 481.817 274.86 483.098 274.86 484.678C274.86 486.258 275.369 487.539 275.996 487.539Z" fill="#3F3D56"/>
<path d="M235.823 454.349C235.823 454.349 233.549 450.081 233.549 447.478L235.823 454.349Z" fill="#3F3D56"/>
<path d="M236.823 451.589C236.823 451.589 238.062 446.851 239.787 445.031L236.823 451.589Z" fill="#3F3D56"/>
</g>
<defs>
<clipPath id="clip0_9_618">
<rect width="568" height="584" fill="white"/>
</clipPath>
</defs>
</svg>
